<?xml version="1.0" standalone="no"?>
<!DOCTYPE svg PUBLIC "-//W3C//DTD SVG 20010904//EN"
 "http://www.w3.org/TR/2001/REC-SVG-20010904/DTD/svg10.dtd">
<svg version="1.0" xmlns="http://www.w3.org/2000/svg"
 width="1000.000000pt" height="1000.000000pt" viewBox="0 0 1000.000000 1000.000000"
 preserveAspectRatio="xMidYMid meet">
<metadata>
Created by potrace 1.11, written by Peter Selinger 2001-2013
</metadata>
<g transform="translate(0.000000,1000.000000) scale(0.100000,-0.100000)"
fill="#000000" stroke="none">
<path d="M4738 9995 c-2 -1 -52 -6 -113 -9 -60 -4 -119 -9 -130 -11 -11 -2
-47 -7 -80 -10 -33 -3 -71 -7 -84 -10 -14 -2 -45 -7 -70 -10 -25 -3 -57 -7
-71 -10 -14 -3 -38 -7 -55 -10 -16 -3 -41 -7 -55 -9 -14 -3 -70 -14 -125 -26
-55 -12 -116 -25 -135 -30 -49 -10 -174 -45 -310 -87 -596 -183 -1196 -507
-1685 -911 -178 -146 -398 -357 -535 -511 -36 -40 -74 -83 -85 -95 -11 -12
-36 -42 -55 -66 -19 -24 -47 -58 -61 -75 -163 -192 -402 -563 -544 -845 -91
-181 -205 -435 -194 -435 1 0 -3 -11 -11 -24 -15 -29 -106 -285 -125 -356 -60
-214 -79 -287 -105 -410 -29 -138 -45 -227 -54 -295 -45 -326 -51 -417 -51
-750 1 -236 8 -428 19 -500 2 -14 7 -52 11 -85 7 -71 33 -249 40 -285 3 -14 7
-36 10 -50 22 -146 114 -498 181 -691 198 -574 467 -1060 847 -1534 45 -55 83
-102 86 -105 3 -3 40 -43 81 -90 119 -134 328 -339 460 -450 36 -30 74 -63 85
-73 80 -73 475 -353 568 -402 20 -11 37 -23 37 -27 0 -5 5 -8 10 -8 6 0 27
-10 48 -23 160 -101 506 -265 762 -362 186 -71 558 -180 685 -201 11 -1 76
-14 145 -28 69 -13 143 -27 165 -29 22 -3 76 -10 120 -16 228 -30 339 -36 640
-36 228 0 424 8 497 20 13 2 50 6 83 9 33 4 71 8 85 10 14 3 46 7 71 10 188
24 548 107 769 178 382 122 785 308 1125 518 182 113 449 307 580 421 271 236
470 437 635 639 25 30 47 57 50 60 11 9 176 233 232 315 46 66 135 209 231
370 33 57 185 360 212 425 15 36 35 83 45 105 19 42 108 278 133 355 43 129
136 486 152 580 3 19 10 58 15 85 5 28 12 68 16 90 3 22 9 67 14 100 5 33 12
85 15 115 4 30 8 69 10 85 27 195 27 783 0 1015 -3 19 -7 55 -10 80 -9 87 -16
136 -32 225 -8 50 -17 104 -20 120 -3 17 -20 98 -39 180 -20 83 -37 159 -39
170 -25 118 -162 508 -252 715 -38 88 -193 400 -223 450 -5 8 -30 51 -56 95
-247 419 -587 836 -953 1165 -46 41 -89 80 -95 85 -24 23 -263 213 -306 243
-342 244 -642 412 -1045 587 -183 79 -609 215 -755 241 -14 3 -34 8 -45 11
-11 3 -29 7 -40 9 -11 1 -49 9 -85 18 -95 22 -334 57 -485 71 -38 4 -86 9
-105 11 -41 6 -647 14 -652 9z"/>
</g>
</svg>
